<svg width="16" height="16" viewBox="0 0 16 16" fill="none" xmlns="http://www.w3.org/2000/svg">
<path d="M0.8 2.3999C1.2425 2.3999 1.6 2.7574 1.6 3.1999V9.5999H7.2V5.5999C7.2 5.1574 7.5575 4.7999 8 4.7999H13.6C14.925 4.7999 16 5.8749 16 7.1999V12.7999C16 13.2424 15.6425 13.5999 15.2 13.5999C14.7575 13.5999 14.4 13.2424 14.4 12.7999V11.9999H8.8H8H1.6V12.7999C1.6 13.2424 1.2425 13.5999 0.8 13.5999C0.3575 13.5999 0 13.2424 0 12.7999V3.1999C0 2.7574 0.3575 2.3999 0.8 2.3999ZM4.4 4.7999C4.93043 4.7999 5.43914 5.01062 5.81421 5.38569C6.18929 5.76076 6.4 6.26947 6.4 6.7999C6.4 7.33034 6.18929 7.83904 5.81421 8.21412C5.43914 8.58919 4.93043 8.7999 4.4 8.7999C3.86957 8.7999 3.36086 8.58919 2.98579 8.21412C2.61071 7.83904 2.4 7.33034 2.4 6.7999C2.4 6.26947 2.61071 5.76076 2.98579 5.38569C3.36086 5.01062 3.86957 4.7999 4.4 4.7999Z" fill="#0A2540"/>
</svg>
