<svg width="16" height="17" viewBox="0 0 16 17" fill="none" xmlns="http://www.w3.org/2000/svg">
<g clip-path="url(#clip0_2320_453)">
<path d="M11.5 1.5C11.5 1.10218 11.342 0.720644 11.0607 0.43934C10.7794 0.158035 10.3978 0 10 0C9.60218 0 9.22064 0.158035 8.93934 0.43934C8.65804 0.720644 8.5 1.10218 8.5 1.5C8.5 1.89782 8.65804 2.27936 8.93934 2.56066C9.22064 2.84196 9.60218 3 10 3C10.3978 3 10.7794 2.84196 11.0607 2.56066C11.342 2.27936 11.5 1.89782 11.5 1.5ZM5.42812 5.48438C5.7375 5.175 6.15937 5 6.6 5C6.65937 5 6.71875 5.00313 6.775 5.00938L5.8 7.9375C5.50938 8.8125 5.85312 9.775 6.6375 10.2656L9.33125 11.95L8.5375 14.725C8.38437 15.2563 8.69375 15.8094 9.225 15.9625C9.75625 16.1156 10.3094 15.8062 10.4625 15.275L11.3594 12.1375C11.5438 11.4937 11.2781 10.8063 10.7125 10.4531L8.9375 9.34375L9.90312 6.76875L10.0625 7.15312C10.5312 8.27187 11.6219 9 12.8344 9H13.5C14.0531 9 14.5 8.55313 14.5 8C14.5 7.44687 14.0531 7 13.5 7H12.8344C12.4313 7 12.0656 6.75625 11.9125 6.38438L11.7156 5.91563C11.2594 4.81875 10.3375 3.98125 9.2 3.63125L7.67812 3.1625C7.33125 3.05625 6.96875 3 6.60313 3C5.63438 3 4.70312 3.38438 4.01875 4.07188L3.29375 4.79375C2.90313 5.18437 2.90313 5.81875 3.29375 6.20937C3.68438 6.6 4.31875 6.6 4.70937 6.20937L5.43125 5.4875L5.42812 5.48438ZM4.35 11H2.5C1.94687 11 1.5 11.4469 1.5 12C1.5 12.5531 1.94687 13 2.5 13H4.675C5.26875 13 5.80625 12.65 6.04688 12.1094L6.40625 11.3L6.10938 11.1125C5.5625 10.7719 5.15625 10.275 4.925 9.70938L4.35 11Z" fill="#0A2540"/>
</g>
<defs>
<clipPath id="clip0_2320_453">
<rect width="16" height="16.0017" fill="white"/>
</clipPath>
</defs>
</svg>
